<svg xmlns="http://www.w3.org/2000/svg" xmlns:xlink="http://www.w3.org/1999/xlink" xmlns:fi="http://pattern.flaticon.com/" x="0" y="0" width="700" height="350" viewBox="0 0 700 350"><rect x="0px" y="0px" width="100%" height="100%" opacity="1" fill="#e9f3e3"/><defs><g transform="matrix(1.40625 0 0 1.40625 305 305)" id="L1_10"><path d="m56 40.10529v-28.10529c0-2.75684-2.24316-5-5-5h-2v-2c0-1.6543-1.3457-3-3-3s-3 1.3457-3 3v2h-5v-2c0-1.6543-1.3457-3-3-3s-3 1.3457-3 3v2h-6v-2c0-1.6543-1.3457-3-3-3s-3 1.3457-3 3v2h-5v-2c0-1.6543-1.3457-3-3-3s-3 1.3457-3 3v2h-2c-2.75684 0-5 2.24316-5 5v40c0 2.75684 2.24316 5 5 5h33.62347c2.07868 3.58081 5.94617 6 10.37653 6 6.61719 0 12-5.38281 12-12 0-4.83142-2.87561-8.99408-7-10.89471zm-11-35.10529c0-.55176.44824-1 1-1s1 .44824 1 1v6c0 .55176-.44824 1-1 1s-1-.44824-1-1zm-11 0c0-.55176.44824-1 1-1s1 .44824 1 1v6c0 .55176-.44824 1-1 1s-1-.44824-1-1zm-12 0c0-.55176.44824-1 1-1s1 .44824 1 1v6c0 .55176-.44824 1-1 1s-1-.44824-1-1zm-11 0c0-.55176.44824-1 1-1s1 .44824 1 1v6c0 .55176-.44824 1-1 1s-1-.44824-1-1zm-4 4h2v2c0 1.6543 1.3457 3 3 3s3-1.3457 3-3v-2h5v2c0 1.6543 1.3457 3 3 3s3-1.3457 3-3v-2h6v2c0 1.6543 1.3457 3 3 3s3-1.3457 3-3v-2h5v2c0 1.6543 1.3457 3 3 3s3-1.3457 3-3v-2h2c1.6543 0 3 1.3457 3 3v5h-50v-5c0-1.6543 1.3457-3 3-3zm0 46c-1.6543 0-3-1.3457-3-3v-33h50v20.39484c-.96082-.24866-1.96246-.39484-3-.39484-.6828 0-1.34808.07056-2 .1806v-5.1806c0-.55273-.44727-1-1-1h-6c-.55273 0-1 .44727-1 1v6c0 .55273.44727 1 1 1h2.38086c-3.23914 2.15106-5.38086 5.82843-5.38086 10 0 1.40411.25494 2.74664.70001 4zm40-16h-4v-4h4zm4 22c-5.51367 0-10-4.48633-10-10s4.48633-10 10-10 10 4.48633 10 10-4.48633 10-10 10z"/><path d="m52 49.2774v-6.2774h-2v6.2774c-.59528.34644-1 .98413-1 1.7226 0 .10126.01526.19836.02979.29553l-3.65479 2.92322 1.25 1.5625 3.65161-2.92133c.22492.08759.46753.14008.72339.14008 1.10455 0 2-.89545 2-2 0-.73846-.40472-1.37616-1-1.7226z"/><path d="m15 22h-6c-.55273 0-1 .44727-1 1v6c0 .55273.44727 1 1 1h6c.55273 0 1-.44727 1-1v-6c0-.55273-.44727-1-1-1zm-1 6h-4v-4h4z"/><path d="m26 22h-6c-.55273 0-1 .44727-1 1v6c0 .55273.44727 1 1 1h6c.55273 0 1-.44727 1-1v-6c0-.55273-.44727-1-1-1zm-1 6h-4v-4h4z"/><path d="m37 22h-6c-.55273 0-1 .44727-1 1v6c0 .55273.44727 1 1 1h6c.55273 0 1-.44727 1-1v-6c0-.55273-.44727-1-1-1zm-1 6h-4v-4h4z"/><path d="m42 30h6c.55273 0 1-.44727 1-1v-6c0-.55273-.44727-1-1-1h-6c-.55273 0-1 .44727-1 1v6c0 .55273.44727 1 1 1zm1-6h4v4h-4z"/><path d="m15 33h-6c-.55273 0-1 .44727-1 1v6c0 .55273.44727 1 1 1h6c.55273 0 1-.44727 1-1v-6c0-.55273-.44727-1-1-1zm-1 6h-4v-4h4z"/><path d="m26 33h-6c-.55273 0-1 .44727-1 1v6c0 .55273.44727 1 1 1h6c.55273 0 1-.44727 1-1v-6c0-.55273-.44727-1-1-1zm-1 6h-4v-4h4z"/><path d="m37 33h-6c-.55273 0-1 .44727-1 1v6c0 .55273.44727 1 1 1h6c.55273 0 1-.44727 1-1v-6c0-.55273-.44727-1-1-1zm-1 6h-4v-4h4z"/><path d="m15 44h-6c-.55273 0-1 .44727-1 1v6c0 .55273.44727 1 1 1h6c.55273 0 1-.44727 1-1v-6c0-.55273-.44727-1-1-1zm-1 6h-4v-4h4z"/><path d="m26 44h-6c-.55273 0-1 .44727-1 1v6c0 .55273.44727 1 1 1h6c.55273 0 1-.44727 1-1v-6c0-.55273-.44727-1-1-1zm-1 6h-4v-4h4z"/><path d="m37 44h-6c-.55273 0-1 .44727-1 1v6c0 .55273.44727 1 1 1h6c.55273 0 1-.44727 1-1v-6c0-.55273-.44727-1-1-1zm-1 6h-4v-4h4z"/></g><path d="M165,0C74.019,0,0,74.019,0,165s74.019,165,165,165c90.982,0,165-74.019,165-165S255.982,0,165,0z" transform="matrix(0.03030303120613098 0 0 0.03030303120613098 345 82.5)" id="L1_15" fill="#b07a57"/><g transform="matrix(-0.9375 0 0 0.9375 118.4375 57.5)" id="L1_12"><path d="m56 40.10529v-28.10529c0-2.75684-2.24316-5-5-5h-2v-2c0-1.6543-1.3457-3-3-3s-3 1.3457-3 3v2h-5v-2c0-1.6543-1.3457-3-3-3s-3 1.3457-3 3v2h-6v-2c0-1.6543-1.3457-3-3-3s-3 1.3457-3 3v2h-5v-2c0-1.6543-1.3457-3-3-3s-3 1.3457-3 3v2h-2c-2.75684 0-5 2.24316-5 5v40c0 2.75684 2.24316 5 5 5h33.62347c2.07868 3.58081 5.94617 6 10.37653 6 6.61719 0 12-5.38281 12-12 0-4.83142-2.87561-8.99408-7-10.89471zm-11-35.10529c0-.55176.44824-1 1-1s1 .44824 1 1v6c0 .55176-.44824 1-1 1s-1-.44824-1-1zm-11 0c0-.55176.44824-1 1-1s1 .44824 1 1v6c0 .55176-.44824 1-1 1s-1-.44824-1-1zm-12 0c0-.55176.44824-1 1-1s1 .44824 1 1v6c0 .55176-.44824 1-1 1s-1-.44824-1-1zm-11 0c0-.55176.44824-1 1-1s1 .44824 1 1v6c0 .55176-.44824 1-1 1s-1-.44824-1-1zm-4 4h2v2c0 1.6543 1.3457 3 3 3s3-1.3457 3-3v-2h5v2c0 1.6543 1.3457 3 3 3s3-1.3457 3-3v-2h6v2c0 1.6543 1.3457 3 3 3s3-1.3457 3-3v-2h5v2c0 1.6543 1.3457 3 3 3s3-1.3457 3-3v-2h2c1.6543 0 3 1.3457 3 3v5h-50v-5c0-1.6543 1.3457-3 3-3zm0 46c-1.6543 0-3-1.3457-3-3v-33h50v20.39484c-.96082-.24866-1.96246-.39484-3-.39484-.6828 0-1.34808.07056-2 .1806v-5.1806c0-.55273-.44727-1-1-1h-6c-.55273 0-1 .44727-1 1v6c0 .55273.44727 1 1 1h2.38086c-3.23914 2.15106-5.38086 5.82843-5.38086 10 0 1.40411.25494 2.74664.70001 4zm40-16h-4v-4h4zm4 22c-5.51367 0-10-4.48633-10-10s4.48633-10 10-10 10 4.48633 10 10-4.48633 10-10 10z"/><path d="m52 49.2774v-6.2774h-2v6.2774c-.59528.34644-1 .98413-1 1.7226 0 .10126.01526.19836.02979.29553l-3.65479 2.92322 1.25 1.5625 3.65161-2.92133c.22492.08759.46753.14008.72339.14008 1.10455 0 2-.89545 2-2 0-.73846-.40472-1.37616-1-1.7226z"/><path d="m15 22h-6c-.55273 0-1 .44727-1 1v6c0 .55273.44727 1 1 1h6c.55273 0 1-.44727 1-1v-6c0-.55273-.44727-1-1-1zm-1 6h-4v-4h4z"/><path d="m26 22h-6c-.55273 0-1 .44727-1 1v6c0 .55273.44727 1 1 1h6c.55273 0 1-.44727 1-1v-6c0-.55273-.44727-1-1-1zm-1 6h-4v-4h4z"/><path d="m37 22h-6c-.55273 0-1 .44727-1 1v6c0 .55273.44727 1 1 1h6c.55273 0 1-.44727 1-1v-6c0-.55273-.44727-1-1-1zm-1 6h-4v-4h4z"/><path d="m42 30h6c.55273 0 1-.44727 1-1v-6c0-.55273-.44727-1-1-1h-6c-.55273 0-1 .44727-1 1v6c0 .55273.44727 1 1 1zm1-6h4v4h-4z"/><path d="m15 33h-6c-.55273 0-1 .44727-1 1v6c0 .55273.44727 1 1 1h6c.55273 0 1-.44727 1-1v-6c0-.55273-.44727-1-1-1zm-1 6h-4v-4h4z"/><path d="m26 33h-6c-.55273 0-1 .44727-1 1v6c0 .55273.44727 1 1 1h6c.55273 0 1-.44727 1-1v-6c0-.55273-.44727-1-1-1zm-1 6h-4v-4h4z"/><path d="m37 33h-6c-.55273 0-1 .44727-1 1v6c0 .55273.44727 1 1 1h6c.55273 0 1-.44727 1-1v-6c0-.55273-.44727-1-1-1zm-1 6h-4v-4h4z"/><path d="m15 44h-6c-.55273 0-1 .44727-1 1v6c0 .55273.44727 1 1 1h6c.55273 0 1-.44727 1-1v-6c0-.55273-.44727-1-1-1zm-1 6h-4v-4h4z"/><path d="m26 44h-6c-.55273 0-1 .44727-1 1v6c0 .55273.44727 1 1 1h6c.55273 0 1-.44727 1-1v-6c0-.55273-.44727-1-1-1zm-1 6h-4v-4h4z"/><path d="m37 44h-6c-.55273 0-1 .44727-1 1v6c0 .55273.44727 1 1 1h6c.55273 0 1-.44727 1-1v-6c0-.55273-.44727-1-1-1zm-1 6h-4v-4h4z"/></g><g transform="matrix(0.078125 0 0 0.078125 242.5 67.5)" id="L1_13"><path d="m256 0-154.947 256 154.947 256c141.16 0 256-114.84 256-256s-114.84-256-256-256z" fill="#f71e78"/><path d="m0 256c0 141.16 114.84 256 256 256v-512c-141.16 0-256 114.84-256 256z" fill="#ff4f75"/><path d="m354.013 86.236c-28.832-16.683-62.306-26.236-98.013-26.236l-45 98 45 98 98.013-94.764z" fill="#ffcc4a"/><path d="m256 59.973c-33.311-.031-67.077 8.433-98 26.286l10.029 107.37 87.971 62.371z" fill="#ffe278"/><path d="m157.987 86.236c-28.864 16.629-53.874 40.841-71.727 71.764l62.37 87.971 107.37 10.029z" fill="#ffcc4a"/><path d="m86.236 157.987c-16.683 28.832-26.236 62.306-26.236 98.013l98 45 98-45z" fill="#ffe278"/><path d="m59.973 256c-.031 33.311 8.433 67.077 26.286 98l107.37-10.029 62.371-87.971z" fill="#ffcc4a"/><path d="m86.236 354.013c16.629 28.864 40.841 53.874 71.764 71.727l87.971-62.37 10.029-107.37z" fill="#ffe278"/><path d="m157.987 425.764c28.832 16.683 62.306 26.236 98.013 26.236l45-98-45-98z" fill="#ffcc4a"/><path d="m256 452.027c33.311.031 67.077-8.433 98-26.286l-10.029-107.37-87.971-62.371z" fill="#ffb54c"/><path d="m354.013 425.764c28.864-16.629 53.874-40.841 71.727-71.764l-62.37-87.971-107.37-10.029z" fill="#ffcc4a"/><path d="m425.764 354.013c16.683-28.832 26.236-62.306 26.236-98.013l-98-45-98 45z" fill="#ffb54c"/><path d="m452.027 256c.031-33.311-8.433-67.077-26.286-98l-107.37 10.029-62.371 87.971z" fill="#ffcc4a"/><path d="m425.764 157.987c-16.629-28.864-40.841-53.874-71.764-71.727l-98 169.74z" fill="#ffb54c"/><path d="m256 120-82.316 136 82.316 136c74.991 0 136-61.009 136-136s-61.009-136-136-136z" fill="#e5f7ff"/><path d="m120 256c0 74.991 61.009 136 136 136v-272c-74.991 0-136 61.009-136 136z" fill="#ffffff"/><path d="m271 180h-15l-7.5 45 7.5 48.32 15-8.66z" fill="#455f80"/><path d="m241 180v67.34l-58.318 33.67 15 25.98 58.318-33.67v-93.32z" fill="#587aa1"/></g><g transform="matrix(0.03906311094760895 0 0 0.03906311094760895 340 165)" id="L1_17"><g id="L1_18"><rect x="275px" y="68px" width="68px" height="39px" id="L1_19" fill="#d5f5fb"/><path d="M273.848,68.262h72c13.255,0,24-10.745,24-24v0c0-13.255-10.745-24-24-24h-72    c-13.255,0-24,10.745-24,24v0C249.848,57.517,260.593,68.262,273.848,68.262z" id="L1_20" fill="#ff7480"/><circle cx="310" cy="299" r="192" id="L1_21" fill="#5ddef5"/><circle cx="310" cy="299" r="145" id="L1_22" fill="#ffffff"/><circle cx="310" cy="299" r="21" id="L1_23" fill="#ff838e"/></g><g id="L1_24"><path d="M511.005,279.646c-4.597-46.238-25.254-89.829-58.168-122.744    c-28.128-28.127-62.556-46.202-98.782-54.239V77.255c14.796-3.681,25.794-17.074,25.794-32.993c0-18.748-15.252-34-34-34h-72    c-18.748,0-34,15.252-34,34c0,15.918,10.998,29.311,25.793,32.993v25.479c-36.115,8.071-70.429,26.121-98.477,54.169    c-6.138,6.138-11.798,12.577-16.979,19.269c-0.251-0.019-0.502-0.038-0.758-0.038H78.167c-5.522,0-10,4.477-10,10s4.478,10,10,10    h58.412c-7.332,12.275-13.244,25.166-17.744,38.436H10c-5.522,0-10,4.477-10,10s4.478,10,10,10h103.184    c-2.882,12.651-4.536,25.526-4.963,38.437H64c-5.522,0-10,4.477-10,10s4.478,10,10,10h44.54    c0.844,12.944,2.925,25.82,6.244,38.437H50c-5.522,0-10,4.477-10,10s4.478,10,10,10h71.166    c9.81,25.951,25.141,50.274,45.999,71.132c32.946,32.946,76.582,53.608,122.868,58.181c6.606,0.652,13.217,0.975,19.819,0.975    c39.022,0,77.548-11.293,110.238-32.581c4.628-3.014,5.937-9.209,2.923-13.837s-9.209-5.937-13.837-2.923    c-71.557,46.597-167.39,36.522-227.869-23.957c-70.962-70.962-70.962-186.425,0-257.388c70.961-70.961,186.424-70.961,257.387,0    c60.399,60.4,70.529,156.151,24.086,227.673c-3.008,4.632-1.691,10.826,2.94,13.833c4.634,3.008,10.826,1.691,13.833-2.941    C504.367,371.396,515.537,325.241,511.005,279.646z M259.849,44.263c0-7.72,6.28-14,14-14h72c7.72,0,14,6.28,14,14s-6.28,14-14,14    h-1.794h-68.413h-1.793C266.129,58.263,259.849,51.982,259.849,44.263z M285.642,99.296V78.263h48.413v20.997    C317.979,97.348,301.715,97.36,285.642,99.296z" id="L1_25"/><path d="M445.77,425.5c-2.64,0-5.21,1.07-7.069,2.93c-1.87,1.86-2.931,4.44-2.931,7.07    c0,2.63,1.061,5.21,2.931,7.07c1.859,1.87,4.43,2.93,7.069,2.93c2.63,0,5.2-1.06,7.07-2.93c1.86-1.86,2.93-4.44,2.93-7.07    c0-2.63-1.069-5.21-2.93-7.07C450.97,426.57,448.399,425.5,445.77,425.5z" id="L1_26"/><path d="M310.001,144.609c-85.538,0-155.129,69.59-155.129,155.129s69.591,155.129,155.129,155.129    s155.129-69.59,155.129-155.129S395.539,144.609,310.001,144.609z M310.001,434.867c-74.511,0-135.129-60.619-135.129-135.129    s60.618-135.129,135.129-135.129S445.13,225.228,445.13,299.738S384.512,434.867,310.001,434.867z" id="L1_27"/><path d="M373.257,222.34l-49.53,49.529c-4.142-2.048-8.801-3.205-13.726-3.205c-4.926,0-9.584,1.157-13.726,3.205    l-22.167-22.167c-3.906-3.905-10.236-3.905-14.143,0c-3.905,3.905-3.905,10.237,0,14.142l22.167,22.167    c-2.049,4.142-3.205,8.801-3.205,13.726c0,17.134,13.939,31.074,31.074,31.074s31.074-13.94,31.074-31.074    c0-4.925-1.157-9.584-3.205-13.726l48.076-48.076v0l1.453-1.453c3.905-3.905,3.905-10.237,0-14.142    S377.164,218.435,373.257,222.34z M310.001,310.812c-6.106,0-11.074-4.968-11.074-11.074s4.968-11.074,11.074-11.074    s11.074,4.968,11.074,11.074S316.107,310.812,310.001,310.812z" id="L1_28"/><path d="M416.92,289.86h-9.265c-5.522,0-10,4.477-10,10s4.478,10,10,10h9.265c5.522,0,10-4.477,10-10    S422.442,289.86,416.92,289.86z" id="L1_29"/><path d="M212.346,289.616h-9.264c-5.522,0-10,4.477-10,10s4.478,10,10,10h9.264c5.522,0,10-4.477,10-10    S217.868,289.616,212.346,289.616z" id="L1_30"/><path d="M310.123,212.083c5.522,0,10-4.477,10-10v-9.264c0-5.523-4.478-10-10-10s-10,4.477-10,10v9.264    C300.123,207.606,304.601,212.083,310.123,212.083z" id="L1_31"/><path d="M309.879,387.393c-5.522,0-10,4.477-10,10v9.264c0,5.523,4.478,10,10,10s10-4.477,10-10v-9.264    C319.879,391.87,315.401,387.393,309.879,387.393z" id="L1_32"/><path d="M10,351.44c-2.63,0-5.21,1.07-7.07,2.93c-1.86,1.86-2.93,4.44-2.93,7.07c0,2.64,1.069,5.21,2.93,7.07    s4.44,2.93,7.07,2.93s5.21-1.07,7.069-2.93c1.86-1.86,2.931-4.44,2.931-7.07s-1.07-5.21-2.931-7.07    C15.21,352.51,12.63,351.44,10,351.44z" id="L1_33"/></g></g><path d="M165,0C74.019,0,0,74.019,0,165s74.019,165,165,165c90.982,0,165-74.019,165-165S255.982,0,165,0z" transform="matrix(0.03030303120613098 0 0 0.03030303120613098 82.5 257.5)" id="L1_16" fill="#20b1e0"/><g transform="matrix(-0.11718933284282684 0 0 0.11718933284282684 204.88374908268452 232.50000070096155)" id="L1_34"><g id="XMLID_1434_"><rect x="275px" y="68px" width="68px" height="39px" id="XMLID_1457_" fill="#d5f5fb"/><path d="M273.848,68.262h72c13.255,0,24-10.745,24-24v0c0-13.255-10.745-24-24-24h-72    c-13.255,0-24,10.745-24,24v0C249.848,57.517,260.593,68.262,273.848,68.262z" id="XMLID_1456_" fill="#ff7480"/><circle cx="310" cy="299" r="192" id="XMLID_1452_" fill="#5ddef5"/><circle cx="310" cy="299" r="145" id="XMLID_2618_" fill="#ffffff"/><circle cx="310" cy="299" r="21" id="XMLID_2592_" fill="#ff838e"/></g><g id="XMLID_386_"><path d="M511.005,279.646c-4.597-46.238-25.254-89.829-58.168-122.744    c-28.128-28.127-62.556-46.202-98.782-54.239V77.255c14.796-3.681,25.794-17.074,25.794-32.993c0-18.748-15.252-34-34-34h-72    c-18.748,0-34,15.252-34,34c0,15.918,10.998,29.311,25.793,32.993v25.479c-36.115,8.071-70.429,26.121-98.477,54.169    c-6.138,6.138-11.798,12.577-16.979,19.269c-0.251-0.019-0.502-0.038-0.758-0.038H78.167c-5.522,0-10,4.477-10,10s4.478,10,10,10    h58.412c-7.332,12.275-13.244,25.166-17.744,38.436H10c-5.522,0-10,4.477-10,10s4.478,10,10,10h103.184    c-2.882,12.651-4.536,25.526-4.963,38.437H64c-5.522,0-10,4.477-10,10s4.478,10,10,10h44.54    c0.844,12.944,2.925,25.82,6.244,38.437H50c-5.522,0-10,4.477-10,10s4.478,10,10,10h71.166    c9.81,25.951,25.141,50.274,45.999,71.132c32.946,32.946,76.582,53.608,122.868,58.181c6.606,0.652,13.217,0.975,19.819,0.975    c39.022,0,77.548-11.293,110.238-32.581c4.628-3.014,5.937-9.209,2.923-13.837s-9.209-5.937-13.837-2.923    c-71.557,46.597-167.39,36.522-227.869-23.957c-70.962-70.962-70.962-186.425,0-257.388c70.961-70.961,186.424-70.961,257.387,0    c60.399,60.4,70.529,156.151,24.086,227.673c-3.008,4.632-1.691,10.826,2.94,13.833c4.634,3.008,10.826,1.691,13.833-2.941    C504.367,371.396,515.537,325.241,511.005,279.646z M259.849,44.263c0-7.72,6.28-14,14-14h72c7.72,0,14,6.28,14,14s-6.28,14-14,14    h-1.794h-68.413h-1.793C266.129,58.263,259.849,51.982,259.849,44.263z M285.642,99.296V78.263h48.413v20.997    C317.979,97.348,301.715,97.36,285.642,99.296z" id="XMLID_389_"/><path d="M445.77,425.5c-2.64,0-5.21,1.07-7.069,2.93c-1.87,1.86-2.931,4.44-2.931,7.07    c0,2.63,1.061,5.21,2.931,7.07c1.859,1.87,4.43,2.93,7.069,2.93c2.63,0,5.2-1.06,7.07-2.93c1.86-1.86,2.93-4.44,2.93-7.07    c0-2.63-1.069-5.21-2.93-7.07C450.97,426.57,448.399,425.5,445.77,425.5z" id="XMLID_391_"/><path d="M310.001,144.609c-85.538,0-155.129,69.59-155.129,155.129s69.591,155.129,155.129,155.129    s155.129-69.59,155.129-155.129S395.539,144.609,310.001,144.609z M310.001,434.867c-74.511,0-135.129-60.619-135.129-135.129    s60.618-135.129,135.129-135.129S445.13,225.228,445.13,299.738S384.512,434.867,310.001,434.867z" id="XMLID_394_"/><path d="M373.257,222.34l-49.53,49.529c-4.142-2.048-8.801-3.205-13.726-3.205c-4.926,0-9.584,1.157-13.726,3.205    l-22.167-22.167c-3.906-3.905-10.236-3.905-14.143,0c-3.905,3.905-3.905,10.237,0,14.142l22.167,22.167    c-2.049,4.142-3.205,8.801-3.205,13.726c0,17.134,13.939,31.074,31.074,31.074s31.074-13.94,31.074-31.074    c0-4.925-1.157-9.584-3.205-13.726l48.076-48.076v0l1.453-1.453c3.905-3.905,3.905-10.237,0-14.142    S377.164,218.435,373.257,222.34z M310.001,310.812c-6.106,0-11.074-4.968-11.074-11.074s4.968-11.074,11.074-11.074    s11.074,4.968,11.074,11.074S316.107,310.812,310.001,310.812z" id="XMLID_397_"/><path d="M416.92,289.86h-9.265c-5.522,0-10,4.477-10,10s4.478,10,10,10h9.265c5.522,0,10-4.477,10-10    S422.442,289.86,416.92,289.86z" id="XMLID_398_"/><path d="M212.346,289.616h-9.264c-5.522,0-10,4.477-10,10s4.478,10,10,10h9.264c5.522,0,10-4.477,10-10    S217.868,289.616,212.346,289.616z" id="XMLID_399_"/><path d="M310.123,212.083c5.522,0,10-4.477,10-10v-9.264c0-5.523-4.478-10-10-10s-10,4.477-10,10v9.264    C300.123,207.606,304.601,212.083,310.123,212.083z" id="XMLID_400_"/><path d="M309.879,387.393c-5.522,0-10,4.477-10,10v9.264c0,5.523,4.478,10,10,10s10-4.477,10-10v-9.264    C319.879,391.87,315.401,387.393,309.879,387.393z" id="XMLID_424_"/><path d="M10,351.44c-2.63,0-5.21,1.07-7.07,2.93c-1.86,1.86-2.93,4.44-2.93,7.07c0,2.64,1.069,5.21,2.93,7.07    s4.44,2.93,7.07,2.93s5.21-1.07,7.069-2.93c1.86-1.86,2.931-4.44,2.931-7.07s-1.07-5.21-2.931-7.07    C15.21,352.51,12.63,351.44,10,351.44z" id="XMLID_425_"/></g></g><g transform="matrix(0.0390625 0 0 0.0390625 165 165)" id="L1_35"><path d="m256 0-128 256 128 256c141.385 0 256-114.615 256-256s-114.615-256-256-256z" fill="#28abfa"/><path d="m0 256c0 141.385 114.615 256 256 256v-512c-141.385 0-256 114.615-256 256z" fill="#14cfff"/><path d="m256 60-98 196 98 196c108.248 0 196-87.752 196-196s-87.752-196-196-196z" fill="#c4f3ff"/><path d="m60 256c0 108.248 87.752 196 196 196v-392c-108.248 0-196 87.752-196 196z" fill="#ffffff"/><path d="m298.426 277.213-42.426-42.426h-20l20 42.426 21.213 21.213z" fill="#340d66"/><path d="m170.794 149.581-21.213 21.213 106.419 106.419v-42.426z" fill="#373e9f"/><path d="m341.561 149.227-85.561 85.56-20 42.426h20l106.773-106.774z" fill="#373e9f"/><path d="m213.574 277.213 21.213 21.213 21.213-21.213v-42.426z" fill="#3857bc"/><path d="m271 90h-15l-10 15 10 15h15z" fill="#340d66"/><path d="m241 90h15v30h-15z" fill="#373e9f"/><path d="m271 392h-15l-10 15 10 15h15z" fill="#340d66"/><path d="m241 392h15v30h-15z" fill="#373e9f"/><path d="m90 241h30v30h-30z" transform="matrix(0 -1 1 0 -151 361)" fill="#373e9f"/><path d="m392 241h30v30h-30z" transform="matrix(0 -1 1 0 151 663)" fill="#340d66"/></g></defs><g fi:class="KUsePattern"><pattern id="pattern_L1_10" width="350" height="350" patternUnits="userSpaceOnUse"><use xlink:href="#L1_10" x="-350" y="-350"/><use xlink:href="#L1_10" x="0" y="-350"/><use xlink:href="#L1_10" x="350" y="-350"/><use xlink:href="#L1_10" x="-350" y="0"/><use xlink:href="#L1_10" x="0" y="0"/><use xlink:href="#L1_10" x="350" y="0"/><use xlink:href="#L1_10" x="-350" y="350"/><use xlink:href="#L1_10" x="0" y="350"/><use xlink:href="#L1_10" x="350" y="350"/></pattern><rect x="0" y="0" width="100%" height="100%" fill="url(#pattern_L1_10)"/></g><g fi:class="KUsePattern"><pattern id="pattern_L1_15" width="350" height="350" patternUnits="userSpaceOnUse"><use xlink:href="#L1_15" x="-350" y="-350"/><use xlink:href="#L1_15" x="0" y="-350"/><use xlink:href="#L1_15" x="350" y="-350"/><use xlink:href="#L1_15" x="-350" y="0"/><use xlink:href="#L1_15" x="0" y="0"/><use xlink:href="#L1_15" x="350" y="0"/><use xlink:href="#L1_15" x="-350" y="350"/><use xlink:href="#L1_15" x="0" y="350"/><use xlink:href="#L1_15" x="350" y="350"/></pattern><rect x="0" y="0" width="100%" height="100%" fill="url(#pattern_L1_15)"/></g><g fi:class="KUsePattern"><pattern id="pattern_L1_12" width="350" height="350" patternUnits="userSpaceOnUse"><use xlink:href="#L1_12" x="-350" y="-350"/><use xlink:href="#L1_12" x="0" y="-350"/><use xlink:href="#L1_12" x="350" y="-350"/><use xlink:href="#L1_12" x="-350" y="0"/><use xlink:href="#L1_12" x="0" y="0"/><use xlink:href="#L1_12" x="350" y="0"/><use xlink:href="#L1_12" x="-350" y="350"/><use xlink:href="#L1_12" x="0" y="350"/><use xlink:href="#L1_12" x="350" y="350"/></pattern><rect x="0" y="0" width="100%" height="100%" fill="url(#pattern_L1_12)"/></g><g fi:class="KUsePattern"><pattern id="pattern_L1_13" width="350" height="350" patternUnits="userSpaceOnUse"><use xlink:href="#L1_13" x="-350" y="-350"/><use xlink:href="#L1_13" x="0" y="-350"/><use xlink:href="#L1_13" x="350" y="-350"/><use xlink:href="#L1_13" x="-350" y="0"/><use xlink:href="#L1_13" x="0" y="0"/><use xlink:href="#L1_13" x="350" y="0"/><use xlink:href="#L1_13" x="-350" y="350"/><use xlink:href="#L1_13" x="0" y="350"/><use xlink:href="#L1_13" x="350" y="350"/></pattern><rect x="0" y="0" width="100%" height="100%" fill="url(#pattern_L1_13)"/></g><g fi:class="KUsePattern"><pattern id="pattern_L1_17" width="350" height="350" patternUnits="userSpaceOnUse"><use xlink:href="#L1_17" x="-350" y="-350"/><use xlink:href="#L1_17" x="0" y="-350"/><use xlink:href="#L1_17" x="350" y="-350"/><use xlink:href="#L1_17" x="-350" y="0"/><use xlink:href="#L1_17" x="0" y="0"/><use xlink:href="#L1_17" x="350" y="0"/><use xlink:href="#L1_17" x="-350" y="350"/><use xlink:href="#L1_17" x="0" y="350"/><use xlink:href="#L1_17" x="350" y="350"/></pattern><rect x="0" y="0" width="100%" height="100%" fill="url(#pattern_L1_17)"/></g><g fi:class="KUsePattern"><pattern id="pattern_L1_16" width="350" height="350" patternUnits="userSpaceOnUse"><use xlink:href="#L1_16" x="-350" y="-350"/><use xlink:href="#L1_16" x="0" y="-350"/><use xlink:href="#L1_16" x="350" y="-350"/><use xlink:href="#L1_16" x="-350" y="0"/><use xlink:href="#L1_16" x="0" y="0"/><use xlink:href="#L1_16" x="350" y="0"/><use xlink:href="#L1_16" x="-350" y="350"/><use xlink:href="#L1_16" x="0" y="350"/><use xlink:href="#L1_16" x="350" y="350"/></pattern><rect x="0" y="0" width="100%" height="100%" fill="url(#pattern_L1_16)"/></g><g fi:class="KUsePattern"><pattern id="pattern_L1_34" width="350" height="350" patternUnits="userSpaceOnUse"><use xlink:href="#L1_34" x="-350" y="-350"/><use xlink:href="#L1_34" x="0" y="-350"/><use xlink:href="#L1_34" x="350" y="-350"/><use xlink:href="#L1_34" x="-350" y="0"/><use xlink:href="#L1_34" x="0" y="0"/><use xlink:href="#L1_34" x="350" y="0"/><use xlink:href="#L1_34" x="-350" y="350"/><use xlink:href="#L1_34" x="0" y="350"/><use xlink:href="#L1_34" x="350" y="350"/></pattern><rect x="0" y="0" width="100%" height="100%" fill="url(#pattern_L1_34)"/></g><g fi:class="KUsePattern"><pattern id="pattern_L1_35" width="350" height="350" patternUnits="userSpaceOnUse"><use xlink:href="#L1_35" x="-350" y="-350"/><use xlink:href="#L1_35" x="0" y="-350"/><use xlink:href="#L1_35" x="350" y="-350"/><use xlink:href="#L1_35" x="-350" y="0"/><use xlink:href="#L1_35" x="0" y="0"/><use xlink:href="#L1_35" x="350" y="0"/><use xlink:href="#L1_35" x="-350" y="350"/><use xlink:href="#L1_35" x="0" y="350"/><use xlink:href="#L1_35" x="350" y="350"/></pattern><rect x="0" y="0" width="100%" height="100%" fill="url(#pattern_L1_35)"/></g></svg>